<svg xmlns="http://www.w3.org/2000/svg" viewBox="0 0 50.34 73"><defs><style>.cls-1{fill:#21649c;}.cls-2{fill:#2fc0d1;}.cls-3{fill:#8e74b4;}.cls-4{fill:#faa31b;}.cls-5{fill:#7bc254;}.cls-6{fill:#fff;}</style></defs><title>Asset 2</title><g id="Layer_2" data-name="Layer 2"><g id="Layer_1-2" data-name="Layer 1"><path class="cls-1" d="M45.49,62.7V61.49H44.28A1.75,1.75,0,0,1,45.49,62.7Z"/><path class="cls-2" d="M4.8,64.92A2.32,2.32,0,0,0,3,64.16a3.28,3.28,0,0,0,0,6.53,2.31,2.31,0,0,0,1.84-.75.58.58,0,0,0,.58.58H6.66V64.33H4.8Zm-1.47,4a1.51,1.51,0,0,1,0-3,1.51,1.51,0,0,1,0,3Zm8.39-4.78a2.34,2.34,0,0,0-1.85.76v-.11a.48.48,0,0,0-.47-.48H8v6.81A1.86,1.86,0,0,0,9.87,73V69.94a2.34,2.34,0,0,0,1.85.75,3.28,3.28,0,0,0,0-6.53Zm-.37,4.78a1.51,1.51,0,0,1,0-3,1.51,1.51,0,0,1,0,3Zm8.07-4.78a2.33,2.33,0,0,0-1.84.76.59.59,0,0,0-.58-.59H15.72V71.2a1.81,1.81,0,0,0,1.8,1.8h.06V69.94a2.34,2.34,0,0,0,1.85.75,3.28,3.28,0,0,0,0-6.53Zm-.37,4.78a1.51,1.51,0,1,1,1.48-1.51,1.41,1.41,0,0,1-1.48,1.51Zm6-2.8c0-.22.19-.35.52-.35a.86.86,0,0,1,.74.41.18.18,0,0,0,.23.06l1.27-.68a.17.17,0,0,0,.07-.24v0a2.7,2.7,0,0,0-2.3-1.16c-1.29,0-2.43.68-2.43,2,0,2.14,3,1.78,3,2.46,0,.25-.22.39-.67.39a1,1,0,0,1-1-.56.18.18,0,0,0-.24-.08h0l-.8.46a.67.67,0,0,0-.25.92.45.45,0,0,0,.1.14,3,3,0,0,0,2.17.77c1.34,0,2.58-.6,2.58-2,0-2.29-3-1.82-3-2.53Zm7.69,2.6a1.79,1.79,0,0,0,1.79,1.78h.07v-9H32.76Zm7.71-3.82a2.32,2.32,0,0,0-1.84-.76,3.28,3.28,0,0,0,0,6.53,2.31,2.31,0,0,0,1.84-.75v.16a.42.42,0,0,0,.42.42h1.44V64.33H40.47Zm-1.47,4a1.51,1.51,0,1,1,1.47-1.51A1.41,1.41,0,0,1,39,68.94Zm8.39-4.78a2.34,2.34,0,0,0-1.85.76v-1.2a1.85,1.85,0,0,0-1.85-1.86h0v8.66h1.85v-.58a2.34,2.34,0,0,0,1.85.75,3.28,3.28,0,0,0,0-6.53ZM47,68.94a1.51,1.51,0,1,1,1.47-1.51A1.41,1.41,0,0,1,47,68.94ZM30.24,64.12a1.12,1.12,0,1,0,1.11,1.12h0a1.12,1.12,0,0,0-1.11-1.12Zm0,4.17a1.12,1.12,0,1,0,1.11,1.12h0a1.12,1.12,0,0,0-1.11-1.12Z"/><path class="cls-2" d="M21.31,53.61,2.88,35.19a5.4,5.4,0,0,1,0-7.62L21.31,9.15a5.38,5.38,0,0,1,7.62,0h0L47.35,27.57a5.4,5.4,0,0,1,0,7.62L28.93,53.61a5.38,5.38,0,0,1-7.62,0Z"/><circle class="cls-3" cx="34.42" cy="5.08" r="5.08"/><circle class="cls-4" cx="45.8" cy="4.19" r="3.24"/><circle class="cls-5" cx="42.1" cy="13.75" r="4.25"/><path class="cls-6" d="M36.22,22.19l-9.5,9.5a2.25,2.25,0,0,1-3.17,0h0L14,22.16l-9.31,9.3L15.84,42.58h0l7.72,7.72a2.25,2.25,0,0,0,3.17,0h0l18.8-18.81Z"/></g></g></svg>