<svg xmlns="http://www.w3.org/2000/svg" viewBox="0 0 76.75 71.96"><defs><style>.cls-1{fill:#f26322;}</style></defs><title>Asset 6</title><g id="Layer_2" data-name="Layer 2"><g id="Layer_1-2" data-name="Layer 1"><g id="Group_18" data-name="Group 18"><path id="Path_15" data-name="Path 15" class="cls-1" d="M24.66,61.49l-1.54,2.77h-.47V61.49H21.27v6.63h1.38V65.5h.47l1.54,2.62h1.69l-2-3.24,2-3.39Z"/><path id="Path_16" data-name="Path 16" class="cls-1" d="M32.83,63v3.85c0,1.24,1.07,1.39,1.69,1.39a21.43,21.43,0,0,0,2.77-.15V66.89H34.83c-.31,0-.62,0-.62-.47v-.76l2.62-.16V64.27l-2.62-.15v-.77c0-.31,0-.47.46-.47h2.47V61.65a23.86,23.86,0,0,0-2.93-.15,1.4,1.4,0,0,0-1.39,1.41A.49.49,0,0,0,32.83,63Z"/><path id="Path_17" data-name="Path 17" class="cls-1" d="M48.08,65.5l-2.31-4H44.23v6.63h1.54v-3.7l2.31,3.7h1.54V61.49H48.08Z"/><path id="Path_18" data-name="Path 18" class="cls-1" d="M59,64.57,58,61.49H56.4l2,4.78v1.85H59.8V66.27L62,61.49H60.41Z"/><path id="Path_19" data-name="Path 19" class="cls-1" d="M69.35,61.49l-2.16,6.63h1.54l.47-1.39h2l.46,1.39H73.2L71,61.49Zm.15,4,.62-2.16.62,2.16Z"/></g><g id="Group_26" data-name="Group 26"><g id="Group_25" data-name="Group 25"><g id="Group_19" data-name="Group 19"><path id="Path_20" data-name="Path 20" class="cls-1" d="M46.08,0h.62l1.84,1.39v.15q-1.84,1.4-6,7.4c-5.86,7.7-12,16.8-18.5,26.81-7.55,12.48-11.4,22.5-11.56,29.9L13,71.19v.47c-.47,0-.62.15-.62.3-1.54,0-2.47-2.31-2.77-6.78Q9.79,52.94,22,33.28C26.35,26.2,33.45,16.49,43,3.85h-.16c-17.41,3.86-29.12,6.94-35,9.1C4.47,14.49,2.62,16.18,2.62,18c0,2.47.77,3.85,2.62,4.62V23c0,.16-.15.31-.46.31A4.23,4.23,0,0,1,.62,21,13.94,13.94,0,0,1,0,18V16.8c0-3.4,6.47-6.47,19.11-9.4l24.35-6Z"/></g><g id="Group_20" data-name="Group 20"><path id="Path_21" data-name="Path 21" class="cls-1" d="M28.67,39.91c1.23.47,1.85.77,1.85,1.08a56.54,56.54,0,0,0-4.17,6.32A13.69,13.69,0,0,0,24.5,52.4c1.39-.31,4-2.62,8.17-6.78l1.39.46c-5.4,5.55-8.48,8.32-9.24,8.17-2.16-.16-3.09-.77-3.09-1.85v-.62a35.43,35.43,0,0,1,3.55-7.71A15.8,15.8,0,0,1,28.67,39.91Zm2.15-3.85.93.62c.77.77.92,1.23.92,1.54l-.15.15c-.62.77-.93,1.24-1.23,1.08l-.47-.31c-.92-.77-1.23-1.38-1.08-1.69l.16-.31C30.36,36.37,30.52,36.06,30.82,36.06Z"/></g><g id="Group_21" data-name="Group 21"><path id="Path_22" data-name="Path 22" class="cls-1" d="M36.52,39.92c2.16.3,3.24,1.07,3.09,2.31l-.16.46c-.15,1.23-1.69,2.77-4.47,4.78v1.08h.31c2.62-1.24,4.17-1.85,4.32-1.7,2.46-1.08,3.7-1.38,3.7-.77Q39.38,48.39,35,50.71l-.15.92c-.62,3.85-2.16,6.16-4.78,6.94L29,58.72C27.12,58.57,26.2,58,26.35,57l.16-.77c.15-1.55,2.31-3.71,6.16-6.32a7.88,7.88,0,0,0,0-3.86V43.31a3.93,3.93,0,0,1,3.39-3.24ZM28.36,57.18l.15.15c.77.15,1.85-.92,3.08-2.93l.62-2C29.74,54.25,28.51,55.94,28.36,57.18Zm6.47-13.26-.16.77a5.63,5.63,0,0,0,2.62-3.08L37.14,41a3.52,3.52,0,0,0-2.31,2.93Z"/></g><g id="Group_22" data-name="Group 22"><path id="Path_23" data-name="Path 23" class="cls-1" d="M47.47,37.3h.3c.93.3,1.39.46,1.39.77-.77,1.23-1.39,2.62-2,3.85l-1.39,2.31h.15L49.77,41c.77-.61,1.23-1.08,1.39-.92,1.23.62,1.69.92,1.69,1.23l-5.69,5.24-2,2.15a6.63,6.63,0,0,1,2.15,1.39,7.1,7.1,0,0,1,1.24,3.85v.62c-.16.31-.16.46-.31.46h-.31c-1.08-.15-1.69-.61-1.54-1.23-.46-2.62-1.23-4-2-4.16q-1.8,2.22-3.39,4.62l-.3.31-.16.15h-.31c-1.23,0-2-.15-1.85-.62v-.46c.93-2,2.78-5.39,5.55-10q2.78-4.86,3.24-6Z"/></g><g id="Group_23" data-name="Group 23"><path id="Path_24" data-name="Path 24" class="cls-1" d="M58.72,41.3h.61a2.48,2.48,0,0,1,2.78,1.85h0c0,1.69-.93,3.85-2.93,6.63l.15.15c1.69,0,4.17-1.54,7.4-4.47l.15.77a20,20,0,0,1-4.77,4,5.78,5.78,0,0,1-3.85.77,8.43,8.43,0,0,1-4.78,3.08h-.16c-2-.31-2.93-.92-2.93-1.69V51.32c0-2.31,1.85-5.24,5.71-8.63A4,4,0,0,1,58.72,41.3ZM52.4,52.24v.46a11,11,0,0,0,3.54-2.77v-.15c-1.23-.46-1.85-.93-1.85-1.39h-.15A6.17,6.17,0,0,0,52.4,52.24Zm3.39-4.77c0,.61.46,1.07,1.23,1.38C59,46.39,60,44.23,60,42.38a6.62,6.62,0,0,0-3.7,3.39,12.17,12.17,0,0,0-.46,1.7Z"/></g><g id="Group_24" data-name="Group 24"><path id="Path_25" data-name="Path 25" class="cls-1" d="M70,39.92c2.15.3,3.23,1.07,3.08,2.31l-.16.46c-.15,1.23-1.69,2.77-4.47,4.78v1.08h.31c2.62-1.24,4.17-1.85,4.32-1.7,2.47-1.08,3.7-1.38,3.7-.77q-3.93,2.31-8.32,4.63l-.16.92c-.61,3.85-2.16,6.16-4.77,6.94l-1.08.15c-1.85-.31-2.78-.93-2.62-1.69l.15-.77c.15-1.54,2.31-3.7,6.16-6.32a7.84,7.84,0,0,0,0-3.85V43.31a3.94,3.94,0,0,1,3.4-3.24ZM61.8,57.18l.15.15c.77.15,1.85-.92,3.08-2.93l.62-2C63.19,54.25,62,55.94,61.8,57.18Zm6.47-13.26v.77a5.67,5.67,0,0,0,2.62-3.08L70.74,41a3.68,3.68,0,0,0-2.47,2.93Z"/></g></g></g></g></g></svg>